<svg width="61" height="24" viewBox="0 0 61 24" fill="none" xmlns="http://www.w3.org/2000/svg">
<g clip-path="url(#clip0_2367_8789)">
<path d="M28.585 11.7267V18.7597H26.3521V1.3875H32.2711C33.6989 1.35712 35.0787 1.8989 36.104 2.8913C37.142 3.82548 37.7268 5.16219 37.704 6.55712C37.7344 7.96219 37.1496 9.30902 36.104 10.2457C35.0685 11.2331 33.7901 11.7267 32.2711 11.7242L28.585 11.7267ZM28.585 3.52674V9.59257H32.3268C33.1571 9.61788 33.9571 9.2913 34.5344 8.69383C35.7065 7.55459 35.7344 5.67864 34.5926 4.50649C34.5723 4.48624 34.5546 4.46598 34.5344 4.44826C33.9647 3.83814 33.1597 3.50396 32.3268 3.52674H28.585ZM42.8483 6.48624C44.499 6.48624 45.8002 6.92674 46.7547 7.80776C47.7091 8.68877 48.185 9.8989 48.185 11.4331V18.7597H46.0509V17.109H45.9547C45.0306 18.4685 43.8002 19.147 42.266 19.147C40.9572 19.147 39.861 18.7597 38.9799 17.9824C38.1242 17.2609 37.6382 16.1926 37.6584 15.071C37.6584 13.8407 38.1242 12.8635 39.0534 12.1369C39.9825 11.4103 41.223 11.0457 42.7774 11.0457C44.1015 11.0457 45.1952 11.2888 46.0509 11.7723V11.2609C46.0559 10.4964 45.7167 9.77231 45.1293 9.28624C44.5395 8.75459 43.7698 8.46345 42.9749 8.47358C41.7293 8.47358 40.742 9.00016 40.0154 10.0508L38.0508 8.81282C39.1293 7.26092 40.7293 6.48624 42.8483 6.48624ZM39.9597 15.1217C39.9572 15.6989 40.2331 16.2407 40.6989 16.5774C41.1926 16.9647 41.8053 17.1723 42.4331 17.1597C43.3749 17.1571 44.2787 16.7824 44.9445 16.1166C45.6838 15.4204 46.0534 14.6052 46.0534 13.666C45.3572 13.1116 44.3876 12.8331 43.142 12.8331C42.2357 12.8331 41.4787 13.0508 40.8736 13.4888C40.2635 13.9343 39.9597 14.4736 39.9597 15.1217ZM60.4382 6.87358L52.9876 24.0002H50.6838L53.4483 18.0078L48.5471 6.87358H50.9724L54.5142 15.4128H54.5623L58.0079 6.87358H60.4382Z" fill="white"/>
<path d="M19.5645 10.2076C19.5645 9.52661 19.5089 8.84813 19.3924 8.17725H9.97974V12.0203H15.3696C15.1468 13.2608 14.4278 14.357 13.3772 15.0532V17.5494H16.5949C18.4785 15.8152 19.5645 13.2456 19.5645 10.2076Z" fill="#4285F4"/>
<path d="M9.97969 19.9618C12.6734 19.9618 14.9417 19.0782 16.5949 17.5516L13.3772 15.0554C12.481 15.663 11.3291 16.0099 9.97969 16.0099C7.37716 16.0099 5.16703 14.2554 4.37716 11.8909H1.06323V14.463C2.7569 17.8352 6.20754 19.9618 9.97969 19.9618Z" fill="#34A853"/>
<path d="M4.37721 11.8909C3.95949 10.653 3.95949 9.30866 4.37721 8.07069V5.49854H1.06329C-0.35443 8.31879 -0.35443 11.6428 1.06329 14.4631L4.37721 11.8909Z" fill="#FBBC04"/>
<path d="M9.97969 3.95177C11.4025 3.92899 12.7772 4.4657 13.8075 5.44798L16.6582 2.59987C14.8506 0.903672 12.4582 -0.0279737 9.97969 -0.000125632C6.20754 -0.000125632 2.7569 2.12899 1.06323 5.49861L4.37716 8.07076C5.16703 5.7062 7.37716 3.95177 9.97969 3.95177Z" fill="#EA4335"/>
</g>
<defs>
<clipPath id="clip0_2367_8789">
<rect width="60.438" height="24" fill="white"/>
</clipPath>
</defs>
</svg>
