<?xml version="1.0" encoding="utf-8"?>
<svg viewBox="0 0 20 20" fill="none" width="20" height="20" xmlns="http://www.w3.org/2000/svg">
  <defs>
    <linearGradient id="paint0_linear" x1="2.02523" y1="18.6255" x2="18.6406" y2="2.01012" gradientUnits="userSpaceOnUse" gradientTransform="matrix(1.049979, 0, 0, 1.052313, -0.827594, -0.851432)">
      <stop stop-color="#00ADE8"/>
      <stop offset="1" stop-color="#69FABC"/>
    </linearGradient>
  </defs>
  <path d="M 15.689 0 C 13.311 0 11.378 1.937 11.378 4.321 L 11.378 9.109 C 10.933 9.131 10.489 9.153 10 9.153 C 9.534 9.153 9.067 9.176 8.622 9.198 L 8.622 4.299 C 8.577 1.915 6.622 0 4.244 0.044 C 1.911 0.089 0.044 1.959 0 4.299 L 0 15.724 C 0.044 18.106 2 20.021 4.377 19.977 C 6.711 19.933 8.577 18.062 8.622 15.724 L 8.622 10.958 C 9.067 10.935 9.511 10.912 10 10.912 C 10.466 10.912 10.933 10.89 11.378 10.868 L 11.378 15.746 C 11.423 18.128 13.378 20.044 15.755 19.999 C 18.089 19.955 19.956 18.084 20 15.746 L 20 4.299 C 20 1.915 18.067 0 15.689 0 Z M 4.311 1.759 C 5.711 1.759 6.845 2.895 6.867 4.299 L 6.867 9.376 C 5.6 9.554 4.377 9.911 3.2 10.423 C 2.689 10.645 2.223 10.935 1.778 11.269 L 1.778 4.299 C 1.778 2.895 2.912 1.759 4.311 1.759 Z M 6.867 15.724 C 6.867 17.126 5.733 18.285 4.311 18.285 C 2.912 18.285 1.756 17.148 1.756 15.724 L 1.756 14.587 C 1.756 13.585 2.556 12.606 3.889 12.027 C 4.845 11.626 5.822 11.337 6.845 11.158 L 6.845 15.724 L 6.867 15.724 Z M 15.689 18.285 C 14.289 18.285 13.155 17.148 13.133 15.746 L 13.133 10.668 C 14.4 10.489 15.623 10.134 16.8 9.621 C 17.311 9.398 17.778 9.109 18.222 8.775 L 18.222 15.724 C 18.222 17.126 17.088 18.285 15.689 18.285 Z M 16.089 8.018 C 15.133 8.419 14.156 8.708 13.133 8.887 L 13.133 4.299 C 13.133 2.896 14.266 1.737 15.689 1.737 C 17.088 1.737 18.244 2.873 18.244 4.299 L 18.244 5.434 C 18.244 6.459 17.444 7.417 16.089 8.018 Z" fill="url(#paint0_linear)"/>
</svg>